<svg width="312" height="77" viewBox="0 0 312 77" fill="none" xmlns="http://www.w3.org/2000/svg">
<path d="M92 11H99.8793C104.226 11 106.376 11.4546 108.273 12.727C110.856 14.5006 112.321 17.5914 112.321 21.364C112.321 25.3639 110.65 28.8161 107.887 30.4556C106.164 31.4541 104.141 31.8193 99.792 31.8193H97.8988V38.3864C97.8988 41.8181 95.2575 44.6015 92 44.6015V11ZM99.6213 25.8632C101.342 25.8632 102.719 25.7272 103.668 25.4086C105.338 24.9093 106.379 23.4096 106.379 21.4963C106.379 19.3594 105.346 17.7702 103.625 17.2691C102.712 17.0455 101.815 16.9617 99.8793 16.9617H97.8988V25.8632H99.6213ZM139.092 44.5922H133.839V41.3188C131.558 44.091 129.277 45.1828 125.919 45.1828C118.944 45.1828 113.908 39.6831 113.908 32.0913C113.915 24.4138 118.996 18.8247 126.054 18.8247C129.499 18.8247 131.868 20.0059 133.85 22.778V19.4246H139.092V44.5922ZM119.677 32.2273C119.677 36.6371 122.561 39.6365 126.73 39.6365C130.864 39.6365 133.663 36.5905 133.663 32.0913C133.663 27.5455 130.734 24.3635 126.559 24.3635C122.572 24.3635 119.684 27.6815 119.684 32.2273H119.677ZM143.751 19.4097H149.004V21.8633C150.509 19.501 151.714 18.8247 154.169 18.8247H154.6V24.6373C151.155 24.7268 149.477 26.6867 149.477 30.599V44.5996H143.751V19.4097ZM158.992 24.9093H156.192V19.4097H158.992V11C162.147 11 164.718 13.7014 164.718 17.0325V19.4097H168.161V24.9093H164.718V44.5922H158.992V24.9093ZM177.553 42.2355L168.807 19.4097H175.351L180.647 35.7279L186.423 19.4097H193.011L179.235 53H173.068L177.553 42.2355ZM196.188 11H202.733C207.598 11 209.579 11.4099 211.515 12.7736C213.71 14.318 214.96 16.9095 214.96 19.9556C214.96 23.1357 213.968 24.8646 211.433 26.2731C213.543 27.1822 214.49 27.8641 215.394 29.1812C216.34 30.545 216.856 32.4993 216.856 34.584C216.856 38.1238 215.264 41.1754 212.509 42.8558C210.572 44.0389 208.075 44.5847 204.675 44.5847H196.192L196.188 11ZM203.984 23.9555C207.557 23.9555 209.063 22.9084 209.063 20.4996C209.063 18.182 207.557 17.0902 204.5 17.0902H202.087V23.9555H203.984ZM205.016 38.6361C209.15 38.6361 210.915 37.3636 210.915 34.4089C210.915 31.4541 208.977 30.0457 204.886 30.0457H202.089V38.6361H205.016ZM244.968 32.0522C244.968 39.2788 239.284 45.1883 232.311 45.1883C225.293 45.1883 219.611 39.2788 219.611 32.0522C219.611 24.6876 225.25 18.8247 232.396 18.8247C239.323 18.8247 244.968 24.7733 244.968 32.0522ZM225.378 32.0056C225.378 36.2328 228.478 39.644 232.266 39.644C236.099 39.644 239.199 36.2347 239.199 32.054C239.199 27.7355 236.099 24.3709 232.181 24.3709C228.478 24.3635 225.378 27.8194 225.378 32V32.0056ZM272.733 32.0522C272.733 39.2788 267.052 45.1883 260.077 45.1883C253.06 45.1883 247.377 39.2788 247.377 32.0522C247.377 24.6876 253.018 18.8247 260.164 18.8247C267.096 18.8247 272.733 24.7733 272.733 32.0522ZM253.146 32.0056C253.146 36.2328 256.245 39.644 260.034 39.644C263.867 39.644 266.967 36.2347 266.967 32.054C266.967 27.7355 263.867 24.3709 259.948 24.3709C256.247 24.3635 253.148 27.8194 253.148 32L253.146 32.0056ZM276.26 11C279.416 11 281.986 13.7014 281.986 17.0325V31.2734L289.596 19.4097H296.442L287.919 31.728L297.819 44.5922H290.112L281.977 32.8179V44.5922H276.26V11ZM301.151 19.4097H306.402V21.8633C307.909 19.501 309.114 18.8247 311.569 18.8247H312V24.6373C308.555 24.7268 306.875 26.6867 306.875 30.599V44.5996H301.151V19.4097Z" fill="white"/>
<path d="M92 67.8471H92.7862L93.8747 64.9176H97.3419L98.4203 67.8471H99.2367L96.0316 59.1529H95.195L92 67.8471ZM94.1569 64.1294L95.6184 60.1412L97.0496 64.1294H94.1569Z" fill="#E96A27"/>
<path d="M100.922 67.8471H104.752V67.0588H101.668V59.1529H100.922V67.8471Z" fill="#E96A27"/>
<path d="M106.384 67.8471H110.214V67.0588H107.13V59.1529H106.384V67.8471Z" fill="#E96A27"/>
<path d="M117.282 67.8471H118.028V64.9412L120.628 59.1529H119.812L117.645 64.0235L115.528 59.1529H114.702L117.282 64.9412V67.8471Z" fill="#E96A27"/>
<path d="M125.425 59C123.208 59 121.434 61 121.434 63.5059C121.434 65.9647 123.218 68 125.375 68C127.532 68 129.305 65.9765 129.305 63.5059C129.305 61.0471 127.532 59 125.425 59ZM125.334 59.8C127.118 59.8 128.549 61.4588 128.549 63.5176C128.549 65.5294 127.108 67.2 125.375 67.2C123.631 67.2 122.19 65.5294 122.19 63.5059C122.19 61.5059 123.631 59.8 125.334 59.8Z" fill="#E96A27"/>
<path d="M131.323 59.1529V64.5765C131.323 65.6941 131.474 66.3529 131.847 66.9294C132.29 67.6118 133.026 68 133.852 68C134.689 68 135.425 67.6118 135.868 66.9294C136.241 66.3529 136.392 65.6941 136.392 64.5765V59.1529H135.647V64.5765C135.647 65.3647 135.536 65.9647 135.304 66.3765C135.022 66.8824 134.467 67.2 133.852 67.2C133.248 67.2 132.693 66.8824 132.411 66.3765C132.179 65.9647 132.068 65.3647 132.068 64.5765V59.1529H131.323Z" fill="#E96A27"/>
<path d="M142.335 67.8471H143.081V60.2L147.516 67.8471H148.262V59.1529H147.516V66.3647L143.343 59.1529H142.335V67.8471Z" fill="#E96A27"/>
<path d="M150.602 67.8471H154.674V67.0588H151.348V63.8471H154.563V63.0588H151.348V59.9412H154.674V59.1529H150.602V67.8471Z" fill="#E96A27"/>
<path d="M156.812 67.8471H160.884V67.0588H157.558V63.8471H160.773V63.0588H157.558V59.9412H160.884V59.1529H156.812V67.8471Z" fill="#E96A27"/>
<path d="M163.022 67.8471H165.028C166.106 67.8471 166.872 67.6588 167.517 67.2471C168.687 66.4941 169.312 65.1882 169.312 63.5294C169.312 61.9294 168.757 60.6706 167.699 59.8941C166.973 59.3529 166.167 59.1529 164.776 59.1529H163.022V67.8471ZM163.768 67.0588V59.9412H164.806C165.895 59.9412 166.59 60.0941 167.134 60.4588C168.032 61.0471 168.556 62.1647 168.556 63.4941C168.556 64.6 168.193 65.5765 167.548 66.2235C166.943 66.8235 166.167 67.0588 164.806 67.0588H163.768Z" fill="#E96A27"/>
<path d="M174.93 67.8471H175.676V63.8706H178.599V63.0824H175.676V59.9412H178.71V59.1529H174.93V67.8471Z" fill="#E96A27"/>
<path d="M184.297 59C182.08 59 180.306 61 180.306 63.5059C180.306 65.9647 182.09 68 184.247 68C186.404 68 188.178 65.9765 188.178 63.5059C188.178 61.0471 186.404 59 184.297 59ZM184.207 59.8C185.991 59.8 187.422 61.4588 187.422 63.5176C187.422 65.5294 185.981 67.2 184.247 67.2C182.503 67.2 181.062 65.5294 181.062 63.5059C181.062 61.5059 182.503 59.8 184.207 59.8Z" fill="#E96A27"/>
<path d="M193.047 64.6C194.479 64.4235 195.245 63.4941 195.245 61.9412C195.245 60.8824 194.872 60.0706 194.176 59.6C193.702 59.2941 193.057 59.1529 192.039 59.1529H190.195V67.8471H190.941V59.9412H191.989C192.775 59.9412 193.299 60.0353 193.702 60.2588C194.206 60.5412 194.489 61.1294 194.489 61.9294C194.489 62.8824 194.126 63.4941 193.41 63.7412C193.057 63.8588 192.604 63.9059 191.697 63.9059L194.206 67.8471H195.134L193.047 64.6Z" fill="#E96A27"/>
<path d="M200.725 67.8471H204.797V67.0588H201.471V63.8471H204.686V63.0588H201.471V59.9412H204.797V59.1529H200.725V67.8471Z" fill="#E96A27"/>
<path d="M209.334 67.8471H210.06L213.144 59.1529H212.338L209.707 66.7647L207.086 59.1529H206.27L209.334 67.8471Z" fill="#E96A27"/>
<path d="M214.818 67.8471H218.89V67.0588H215.564V63.8471H218.779V63.0588H215.564V59.9412H218.89V59.1529H214.818V67.8471Z" fill="#E96A27"/>
<path d="M221.028 67.8471H221.774V60.2L226.209 67.8471H226.955V59.1529H226.209V66.3647L222.036 59.1529H221.028V67.8471Z" fill="#E96A27"/>
<path d="M230.303 67.8471H231.049V59.9412H232.753V59.1529H228.6V59.9412H230.303V67.8471Z" fill="#E96A27"/>
<path d="M233.849 65.4118C233.92 66.9765 234.837 68 236.177 68C237.467 68 238.425 66.9059 238.425 65.4235C238.425 64.6588 238.153 63.9765 237.689 63.5647C237.377 63.3059 237.064 63.1412 236.298 62.8706C235.623 62.6353 235.401 62.5294 235.2 62.3294C234.988 62.1059 234.847 61.7176 234.847 61.3176C234.847 60.4353 235.391 59.8 236.137 59.8C236.893 59.8 237.417 60.4118 237.467 61.3529H238.244C238.213 59.9412 237.377 59 236.157 59C234.958 59 234.091 59.9765 234.091 61.3412C234.091 61.9412 234.282 62.5176 234.615 62.8824C234.907 63.2118 235.129 63.3412 236.006 63.6588C236.591 63.8588 236.913 64.0235 237.165 64.2235C237.488 64.4941 237.669 64.9412 237.669 65.4706C237.669 66.4706 237.054 67.2 236.197 67.2C235.734 67.2 235.29 66.9765 235.018 66.5882C234.796 66.2824 234.696 65.9647 234.645 65.4118H233.849Z" fill="#E96A27"/>
<path d="M243.166 67.8471H243.952L245.041 64.9176H248.508L249.586 67.8471H250.403L247.198 59.1529H246.361L243.166 67.8471ZM245.323 64.1294L246.784 60.1412L248.216 64.1294H245.323Z" fill="#E96A27"/>
<path d="M252.088 67.8471H252.834V60.2L257.269 67.8471H258.015V59.1529H257.269V66.3647L253.096 59.1529H252.088V67.8471Z" fill="#E96A27"/>
<path d="M260.355 67.8471H262.361C263.44 67.8471 264.206 67.6588 264.851 67.2471C266.02 66.4941 266.645 65.1882 266.645 63.5294C266.645 61.9294 266.09 60.6706 265.032 59.8941C264.306 59.3529 263.5 59.1529 262.109 59.1529H260.355V67.8471ZM261.101 67.0588V59.9412H262.139C263.228 59.9412 263.923 60.0941 264.468 60.4588C265.365 61.0471 265.889 62.1647 265.889 63.4941C265.889 64.6 265.526 65.5765 264.881 66.2235C264.276 66.8235 263.5 67.0588 262.139 67.0588H261.101Z" fill="#E96A27"/>
<path d="M272.264 67.8471H273.009V64.3294H274.441C275.449 64.3294 275.993 64.1765 276.446 63.7882C276.93 63.3765 277.192 62.6588 277.192 61.7882C277.192 60.7882 276.87 60 276.305 59.6118C275.842 59.2824 275.277 59.1529 274.32 59.1529H272.264V67.8471ZM273.009 63.5412V59.9412H274.068C274.803 59.9412 275.267 60 275.6 60.1294C276.134 60.3294 276.436 60.9294 276.436 61.7765C276.436 62.4588 276.215 63 275.821 63.2471C275.509 63.4588 275.076 63.5412 274.39 63.5412H273.009Z" fill="#E96A27"/>
<path d="M277.769 67.8471H278.555L279.644 64.9176H283.111L284.19 67.8471H285.006L281.801 59.1529H280.964L277.769 67.8471ZM279.926 64.1294L281.388 60.1412L282.819 64.1294H279.926Z" fill="#E96A27"/>
<path d="M289.544 64.6C290.975 64.4235 291.741 63.4941 291.741 61.9412C291.741 60.8824 291.368 60.0706 290.673 59.6C290.199 59.2941 289.554 59.1529 288.536 59.1529H286.691V67.8471H287.437V59.9412H288.486C289.272 59.9412 289.796 60.0353 290.199 60.2588C290.703 60.5412 290.985 61.1294 290.985 61.9294C290.985 62.8824 290.622 63.4941 289.907 63.7412C289.554 63.8588 289.1 63.9059 288.193 63.9059L290.703 67.8471H291.63L289.544 64.6Z" fill="#E96A27"/>
<path d="M294.589 67.8471H295.334V59.9412H297.038V59.1529H292.885V59.9412H294.589V67.8471Z" fill="#E96A27"/>
<path d="M298.678 67.8471H299.424V59.1529H298.678V67.8471Z" fill="#E96A27"/>
<path d="M301.758 67.8471H305.83V67.0588H302.504V63.8471H305.719V63.0588H302.504V59.9412H305.83V59.1529H301.758V67.8471Z" fill="#E96A27"/>
<path d="M307.424 65.4118C307.495 66.9765 308.412 68 309.752 68C311.042 68 312 66.9059 312 65.4235C312 64.6588 311.728 63.9765 311.264 63.5647C310.952 63.3059 310.639 63.1412 309.873 62.8706C309.198 62.6353 308.976 62.5294 308.775 62.3294C308.563 62.1059 308.422 61.7176 308.422 61.3176C308.422 60.4353 308.966 59.8 309.712 59.8C310.468 59.8 310.992 60.4118 311.042 61.3529H311.819C311.788 59.9412 310.952 59 309.732 59C308.533 59 307.666 59.9765 307.666 61.3412C307.666 61.9412 307.858 62.5176 308.19 62.8824C308.482 63.2118 308.704 63.3412 309.581 63.6588C310.166 63.8588 310.488 64.0235 310.74 64.2235C311.063 64.4941 311.244 64.9412 311.244 65.4706C311.244 66.4706 310.629 67.2 309.773 67.2C309.309 67.2 308.865 66.9765 308.593 66.5882C308.372 66.2824 308.271 65.9647 308.22 65.4118H307.424Z" fill="#E96A27"/>
<rect width="76" height="77" rx="20" fill="#232323"/>
<g clip-path="url(#clip0_2478_23788)">
<path d="M49.6316 14.5198C46.1826 12.6634 42.2632 12 34.345 12H20V61C25.9309 61 30.7394 56.9333 30.7394 51.9164V20.6864H34.345C37.8726 20.6864 39.5192 20.8188 41.165 21.1505C44.3008 21.8795 46.1826 24.2007 46.1826 27.317C46.1826 30.1017 44.3008 32.2899 41.2437 33.0195C41.236 33.0214 41.2283 33.0239 41.2207 33.0258C39.5959 33.4583 38.4607 34.9024 38.4607 36.5627V42.3017C43.5581 42.1189 46.4172 41.5457 48.9259 40.3791C53.9435 37.9923 57 32.9526 57 27.1178C57 21.6146 54.3353 17.1059 49.6316 14.5198Z" fill="url(#paint0_linear_2478_23788)"/>
<path d="M38.5547 20.7652C41.2232 20.5117 48.6364 20.5395 51.8482 25.6384C54.024 29.0928 54.0489 34.275 52.2982 37.2854C50.0375 41.173 43.84 42.2879 38.5732 42.2999C38.5112 42.2999 38.4607 42.2507 38.4607 42.1895V36.588C38.4607 34.9743 39.5026 33.5397 41.0513 33.0201L42.469 32.5453C43.7147 32.1278 44.7764 31.2828 45.4188 30.1503C45.6335 29.7713 45.824 29.357 45.9621 28.9206C46.6824 26.6467 45.6271 23.6565 44.0612 22.4722C43.5383 22.0768 42.2919 21.3876 41.631 21.2558C41.6278 21.2552 41.6253 21.2546 41.6221 21.2546L38.5547 20.7652Z" fill="url(#paint1_linear_2478_23788)"/>
</g>
<defs>
<linearGradient id="paint0_linear_2478_23788" x1="11.4402" y1="49.1655" x2="48.5818" y2="11.9523" gradientUnits="userSpaceOnUse">
<stop stop-color="#6F10DD"/>
<stop offset="0.5246" stop-color="#F64D47"/>
<stop offset="0.8813" stop-color="#FDAB45"/>
</linearGradient>
<linearGradient id="paint1_linear_2478_23788" x1="35.9506" y1="38.4341" x2="50.5671" y2="23.7893" gradientUnits="userSpaceOnUse">
<stop stop-color="#D84034"/>
<stop offset="0.8813" stop-color="#FC892D"/>
</linearGradient>
<clipPath id="clip0_2478_23788">
<rect width="37" height="49" fill="white" transform="translate(20 12)"/>
</clipPath>
</defs>
</svg>
